<?xml version="1.0" encoding="UTF-8"?>
<svg version="1.1" viewBox="0 0 2048 776" width="406" height="154" xmlns="http://www.w3.org/2000/svg">
<path transform="translate(0)" d="m0 0h2048v776h-2048z" fill="#fff"/>
<path transform="translate(1209,90)" d="m0 0h200l4 5 10 17 17 28 13 21 13 19 14 18 13 18 5 6 10-13 12-17 12-16 13-18 14-19 26-36 10-13h184l-2 5-8 7-10 9-8 7-27 27-8 7-16 15-15 14-18 18-8 7-17 16-21 21-8 7-8 8-8 7-13 12-3 3 12 16 13 16 10 13 13 16 10 13 9 11 12 14 10 10 7 8 30 30 7 8 7 7 7 8 20 20 7 8 7 7 4 6h-50l-5-1 8 15 8 10 9 9 6 4 9-1 17 4 3-3 7 1 5 5 9 3 4-1 5-1 4 2 1 4 11 2 7-1 4-1 4 5 16 5 12 3 13-1 17-6 11-4 5-1h16l10 5 7 8 3 6-1 7-13 11-13 10-42 32-28 22-13 10-20 15-6 1 1-4 10-9 13-10 14-11 4-4-24 4-104 13-57 7h-9l-7-4-4-7-4-17-11-15-5-11-3-13v-15l1-6-8 6-11 9-17 12h-5l-6-5 2-4 17-14 16-12 27-21 5-3 5 1 18 10 16 5h23l14-4 14-8-1-3-13-10-10-12-8-14-3-8-5-1h-59l-4-1 11 25 1 5-3 3-7 1-5-5-13-27-2-1h-11l-5-2-6-8-14-23-15-24-12-20-12-19-14-23-15-24-3-5h-2l-15 25-12 19-15 25-7 11-14 23-12 19-14 23-4 3h-30l-10-1-3 10-3 9-2 14v13l3 13 5 4 8 7 4 5 10 3 2 4-1 5 4 6 9 4 2 3 2 9 8 5 4 2 3 8 6 9 11 12 8 3 24 4 10 4 7 6 5 10 1 9-3 6-3 2-14 1 2-4 2-3-25 4h-33l-17-3-15-5-16-7-15-8-112-56-5-2-4 9v4l30 14 29 14 56 26 22 10 12 6 10 4 10 2 26 1v1l-42 5h-6l-98-46-40-19-19-10-4-6-1-6 8-18 1-6v-11l3-17 7-14 7-9 4-5-39 5-7-1-1-2v-8l10-3 66-9h5l13 26 9 10 8 6 12 5 5 1 18 1-4-19v-23l5-21 1-2h-57l-5 4-5-1-4-3h-27l-44-1 2-4 10-9 7-8 178-178-2-4-90-90-8-7-81-81-8-7-10-10z"/>
<path transform="translate(829,91)" d="m0 0h323v69h-198l1 130h122l76 1-1 88h-198l1 131h253l-5 5-19 14-17 13-10 7-3 2 2 4 7 7 7 8 9 10 13 14 9 11 7 7v2h-79l-300-1z"/>
<path transform="translate(105,90)" d="m0 0h343v74l-1 1-199 1-1 6v121h201v87l-144 1-56 1-1 7-1 225-141 1z" fill="#1D1D1D"/>
<path transform="translate(486,90)" d="m0 0h135l1 4v424l1 1h91l77 1-1 94h-304z"/>
<path transform="translate(105,90)" d="m0 0h343v74h-178v-1l151-1 11-1 1-3 5-2 3-12 2-6v-15l-4-12-2-8-4-2-21-1-188-1h-96l-9 2-3 1-2 13-1 28 1 77v306l-1 46 1 18 3 12 5 3 11 3 1 2 9 1h24l42 1 20-1 2-3h2l2-4 5-12 1-4 1-18v-30l1-112 1-36h1l1 184v38l-141 1z" fill="#010101"/>
<path transform="translate(1924,564)" d="m0 0 3 1-1 5-8 9-16 12-17 12-17 10-13 5-26 4-162 21h-10l-2-7v-6l21-3 73-8 75-8 22-4 17-5 21-9 12-7 14-10z" fill="#fff"/>
<path transform="translate(1644,550)" d="m0 0 5 2 16 7 11 3 6 1h21l16-2 11 3 9 2-2 5-11 16-4 6 1 5 5 2 4-1 9-11 10-14 2-3 9 1 4 2-2 6-4 5-12 17-5 6-10 2-20 2h-10l-5-12-8-11-8-7-10-5-15-5-20-4 3-9z" fill="#fff"/>
<path transform="translate(1277,523)" d="m0 0 4 2 7 14 11 13 10 7 18 9 12 13 1 3-16 7-13 7h-2l3 8 5 1 23-10 4-2h6l6 7-4 4-25 11-9 3-25-12-6-4 3-13v-13l-4-15-6-11-11-13-5-5 2-4z" fill="#fff"/>
<path transform="translate(358,293)" d="m0 0h90v87h-151v-1l7-1 28-1h90l6-1v-2l9-5 5-14 1-10v-16l-3-9-3-14-3-2-95-1h-19l-40-1-13-1-16-5v-1l5-1z" fill="#010101"/>
<path transform="translate(1909,553)" d="m0 0h7l-2 4-8 7-18 13-16 9-20 8-21 5-22 3h-10v-11l-2-1h-6l-6 7-5 7-18 3 2-5 10-13 6-10 10 1 16 4 7 1h15l12-3 10-5 10-9 5-2 16-3 24-9z" fill="#fff"/>
<path transform="translate(1361,614)" d="m0 0 5 1 8 9 7 9 10 7 8 4 9 2h14l9-2 7 4 17 4 19 3 5 3v2l-8 2-24 3h-23l-21-4-16-6-23-11 1-4 5-4-2-6-5-1-10 4-5 1-9-3-4-2 1-3 24-11z" fill="#fff"/>
<path transform="translate(1636,579)" d="m0 0 20 4 13 5 9 7 6 7 5 9v2l-8 2-22 3h-10l-6-8-6-12-2-6v-12z" fill="#fff"/>
<path transform="translate(1254,543)" d="m0 0 6 3 9 10 6 10 3 8 1 10-2 12-2 2-30-14-2-2 1-16 4-13 5-9z" fill="#fff"/>
<path transform="translate(1754,539)" d="m0 0 3 1 1 3v9l4 1h7l4-5 3-2h6l2 2-1 6-1 3 6 3h6l6-7 4-1 5 2 1 1v10l1 2h9l5-7 5-1 16 4-1 3-10 6-6 2h-15l-40-10-34-9-5-2 4-4z" fill="#fff"/>
<path transform="translate(1359,567)" d="m0 0h6l3 3-2 5-3 1v5l4 4 12-1 4 4-2 5-3 4 1 5 5 2 6-2 7 1 2 2-1 5-5 5 1 4 5 4 6-2 5-1 5 5 5 6-1 3-10 1-12-4-8-7-10-12-9-11-11-13-9-11-5-6 1-2z" fill="#fff"/>
<path transform="translate(244,392)" d="m0 0h1l1 184v38h-37l1-2 19-1 2-3h2l2-4 5-12 1-4 1-18v-30l1-112z"/>
<path transform="translate(1724,662)" d="m0 0 5 1 2 5-7 8-17 13-10 7-5 3-5-1-3-3-1-4 12-10 16-12 9-6z" fill="#030303"/>
<path transform="translate(1267,655)" d="m0 0h7l1 1v9l-3 2-33 5h-12l-2-7 1-4 24-4z" fill="#030303"/>
<path transform="translate(1610,611)" d="m0 0 4 2 4 4-2 5-13 10-17 12-4-1-4-4 1-5 8-7 19-14z" fill="#030303"/>
<path transform="translate(1214,556)" d="m0 0 5 2 2 4v5l-3 2-32 4-5-1-2-2-1-8 13-3z" fill="#030303"/>
<path transform="translate(245,167)" d="m0 0h1v124h-1l-2-19v-76l1-22z" fill="#060606"/>
</svg>
