<svg width="351" height="88" viewBox="0 0 351 88" fill="none" xmlns="http://www.w3.org/2000/svg">
<g clip-path="url(#clip0_129_5098)">
<path d="M88.076 87.9999C87.1875 87.9999 86.4201 87.674 85.774 87.0221C85.1278 86.3703 84.8047 85.5962 84.8047 84.6999V5.74434C84.8047 4.84804 85.1278 4.07397 85.774 3.42211C86.4201 2.77026 87.1875 2.44434 88.076 2.44434H112.793C113.681 2.44434 114.448 2.77026 115.095 3.42211C115.741 4.07397 116.064 4.84804 116.064 5.74434V84.6999C116.064 85.5962 115.741 86.3703 115.095 87.0221C114.448 87.674 113.681 87.9999 112.793 87.9999H88.076Z" fill="white"/>
<path d="M3.27132 86.7777C2.38281 86.7777 1.61546 86.4518 0.969279 85.7999C0.323093 85.1481 0 84.374 0 83.4777V4.52217C0 3.62587 0.323093 2.8518 0.969279 2.19995C1.61546 1.54809 2.38281 1.22217 3.27132 1.22217H26.4128C27.3013 1.22217 28.0687 1.54809 28.7149 2.19995C29.3611 2.8518 29.6842 3.62587 29.6842 4.52217V28.7222L43.3752 3.91106C43.7791 3.25921 44.358 2.64809 45.1388 2.07772C45.9061 1.50735 46.9292 1.22217 48.2216 1.22217H74.9979C75.7249 1.22217 76.3441 1.49377 76.8826 2.00982C77.4077 2.53945 77.6634 3.16414 77.6634 3.91106C77.6634 4.39995 77.5423 4.84809 77.3 5.2555L55.4912 42.1666L79.3597 82.7444C79.602 83.0703 79.7232 83.5185 79.7232 84.0888C79.7232 84.8222 79.4539 85.4604 78.9423 85.9901C78.4173 86.5197 77.7981 86.7777 77.0576 86.7777H49.4332C47.8177 86.7777 46.6196 86.3975 45.8657 85.6098C45.0984 84.8357 44.6272 84.2925 44.4656 83.9666L29.6842 57.3222V83.4777C29.6842 84.374 29.3611 85.1481 28.7149 85.7999C28.0687 86.4518 27.3013 86.7777 26.4128 86.7777H3.27132Z" fill="white"/>
<path d="M161.303 88C153.549 88 146.683 86.8593 140.706 84.5778C134.729 82.2963 129.977 78.7111 126.463 73.8222C122.95 68.9333 121.025 62.6185 120.715 54.8778C120.634 51.537 120.594 47.9519 120.594 44.1222C120.594 40.2926 120.634 36.6259 120.715 33.1222C121.038 25.5444 122.99 19.3111 126.584 14.4222C130.179 9.53333 134.985 5.90741 141.002 3.54444C147.02 1.18148 153.792 0 161.303 0C166.473 0 171.454 0.597531 176.273 1.76543C181.079 2.94691 185.414 4.80741 189.291 7.33333C193.168 9.85926 196.251 13.1049 198.553 17.0432C200.855 20.9951 202.04 25.7481 202.134 31.2889C202.134 32.0222 201.865 32.6605 201.354 33.1901C200.828 33.7198 200.209 33.9778 199.469 33.9778H174.752C173.46 33.9778 172.504 33.7198 171.898 33.1901C171.292 32.6605 170.754 31.7506 170.269 30.4333C169.381 27.8259 168.169 26.0741 166.634 25.1778C165.1 24.2815 163.282 23.8333 161.182 23.8333C158.517 23.8333 156.39 24.5531 154.815 25.979C153.24 27.4049 152.365 29.9988 152.203 33.7333C151.961 40.4148 151.961 47.2593 152.203 54.2667C152.365 58.0148 153.24 60.6086 154.815 62.021C156.39 63.4469 158.517 64.1667 161.182 64.1667C163.282 64.1667 165.113 63.6778 166.688 62.7C168.263 61.7222 169.448 60.0111 170.269 57.5667C170.673 56.1815 171.198 55.2444 171.844 54.7556C172.491 54.2667 173.46 54.0222 174.752 54.0222H199.469C200.196 54.0222 200.815 54.2938 201.354 54.8099C201.879 55.3395 202.134 55.9642 202.134 56.7111C202.054 62.2518 200.869 67.0049 198.553 70.9568C196.251 74.9086 193.168 78.1543 189.291 80.6667C185.414 83.1926 181.066 85.0531 176.273 86.221C171.454 87.4025 166.473 88 161.303 88Z" fill="white"/>
<path d="M273.715 82.7444L249.847 42.1666L271.655 5.2555C271.898 4.84809 272.019 4.39995 272.019 3.91106C272.019 3.17772 271.763 2.55303 271.238 2.0234C270.713 1.49377 270.08 1.22217 269.353 1.22217H242.577C241.285 1.22217 240.262 1.50735 239.494 2.07772C238.727 2.64809 238.135 3.25921 237.731 3.91106L225.615 25.8703L224.04 28.7222V4.52217C224.04 3.62587 223.717 2.8518 223.07 2.19995C222.424 1.54809 221.657 1.22217 220.768 1.22217H197.627C196.738 1.22217 195.971 1.54809 195.325 2.19995C195.244 2.29501 195.163 2.37649 195.082 2.47155C195.002 2.56661 194.934 2.66167 194.88 2.75674C194.813 2.8518 194.759 2.96044 194.705 3.0555C194.652 3.16414 194.611 3.2592 194.571 3.36785C198.744 6.26044 202.164 9.92711 204.708 14.2999C207.468 19.053 208.922 24.7432 209.016 31.2074C209.016 33.4481 208.181 35.4851 206.66 37.0333C205.125 38.5678 203.106 39.4098 200.965 39.4098H194.355V48.5901H200.965C203.106 48.5901 205.125 49.432 206.646 50.9666C208.181 52.5283 209.016 54.5654 209.016 56.711C208.922 63.2567 207.468 68.9469 204.708 73.6999C202.164 78.0728 198.744 81.7394 194.571 84.632C194.611 84.7407 194.652 84.8493 194.705 84.9444C194.813 85.1481 194.934 85.3518 195.082 85.5283C195.163 85.6234 195.244 85.7049 195.325 85.7999C195.971 86.4518 196.738 86.7777 197.627 86.7777H220.768C221.657 86.7777 222.424 86.4518 223.07 85.7999C223.717 85.1481 224.04 84.374 224.04 83.4777V57.3222L225.615 60.1604L238.821 83.9666C238.983 84.2925 239.454 84.8493 240.221 85.6234C240.989 86.3975 242.173 86.7777 243.789 86.7777H271.413C272.14 86.7777 272.773 86.5197 273.298 85.9901C273.823 85.4604 274.079 84.8222 274.079 84.0888C274.079 83.5185 273.957 83.0703 273.715 82.7444Z" fill="white"/>
<path d="M310.776 88C301.81 88 294.419 86.7778 288.603 84.3333C282.788 81.8889 278.426 78.6704 275.518 74.6778C272.61 70.6852 271.076 66.4481 270.914 61.9667C270.914 61.2333 271.17 60.6086 271.695 60.0654C272.22 59.5358 272.839 59.2778 273.566 59.2778H296.586C297.879 59.2778 298.862 59.4543 299.562 59.821C300.248 60.1876 300.989 60.7037 301.81 61.342C302.618 61.9123 303.439 62.4284 304.287 62.863C305.135 63.3111 306.104 63.637 307.195 63.8407C308.285 64.0444 309.47 64.1531 310.776 64.1531C313.522 64.1531 315.716 63.8407 317.372 63.2296C319.028 62.6185 319.863 61.7901 319.863 60.7309C319.863 59.7531 319.391 58.9383 318.463 58.2864C317.534 57.6346 315.932 57.0506 313.67 56.521C311.408 55.9914 308.258 55.4753 304.22 55C297.838 54.1037 292.305 52.5963 287.621 50.4778C282.936 48.3593 279.314 45.4531 276.784 41.7321C274.239 38.0247 272.974 33.4753 272.974 28.0975C272.974 22.5568 274.522 17.6679 277.632 13.4309C280.741 9.19383 285.063 5.89383 290.596 3.53086C296.129 1.18148 302.577 0 309.928 0C315.986 0 321.357 0.787654 326.042 2.37654C330.727 3.96543 334.685 6.04321 337.915 8.60988C341.146 11.1765 343.61 13.9333 345.306 16.8667C347.002 19.8 347.891 22.6111 347.972 25.3C347.972 26.0333 347.702 26.6716 347.191 27.2012C346.666 27.7309 346.074 27.9889 345.427 27.9889H321.195C320.065 27.9889 319.149 27.8259 318.476 27.5C317.789 27.1741 317.076 26.6852 316.349 26.0333C315.945 25.6259 315.191 25.1642 314.101 24.621C313.01 24.0914 311.624 23.8333 309.914 23.8333C307.895 23.8333 306.414 24.1457 305.498 24.7568C304.57 25.3679 304.098 26.2099 304.098 27.2556C304.098 27.9889 304.462 28.6815 305.189 29.3333C305.916 29.9852 307.249 30.5556 309.187 31.0444C311.126 31.5333 313.912 32.0222 317.547 32.5111C325.624 33.4889 332.1 35.0642 337 37.2099C341.887 39.3691 345.441 42.2481 347.662 45.8333C349.883 49.4185 351.001 53.8593 351.001 59.1556C351.001 65.1037 349.237 70.237 345.724 74.5556C342.21 78.8741 337.417 82.1876 331.359 84.5099C325.301 86.8321 318.449 88 310.776 88Z" fill="white"/>
</g>
<defs>
<clipPath id="clip0_129_5098">
<rect width="351" height="88" fill="white"/>
</clipPath>
</defs>
</svg>
